<svg width="40" height="40" viewBox="0 0 40 40" fill="none" xmlns="http://www.w3.org/2000/svg"><path fill-rule="evenodd" clip-rule="evenodd" d="M26.406 12.154a1.44 1.44 0 1 0 0 2.88 1.44 1.44 0 0 0 0-2.88zM20 24a4 4 0 1 1 0-8 4 4 0 0 1 0 8zm0-10.162a6.162 6.162 0 1 0 0 12.324 6.162 6.162 0 0 0 0-12.324zM20 8c-3.259 0-3.668.014-4.948.072-1.277.058-2.149.262-2.912.558a5.878 5.878 0 0 0-2.126 1.384A5.878 5.878 0 0 0 8.63 12.14c-.296.763-.5 1.635-.558 2.912C8.014 16.332 8 16.742 8 20c0 3.26.014 3.667.072 4.948.059 1.277.262 2.149.558 2.913a5.888 5.888 0 0 0 1.384 2.125 5.884 5.884 0 0 0 2.126 1.384c.763.297 1.635.5 2.912.558 1.28.058 1.69.072 4.948.072 3.26 0 3.668-.014 4.948-.072 1.277-.059 2.149-.261 2.913-.558a5.894 5.894 0 0 0 2.125-1.384 5.894 5.894 0 0 0 1.384-2.125c.297-.764.5-1.636.558-2.913.058-1.28.072-1.689.072-4.948 0-3.259-.014-3.668-.072-4.948-.059-1.277-.261-2.149-.558-2.912a5.884 5.884 0 0 0-1.384-2.126 5.888 5.888 0 0 0-2.125-1.384c-.764-.296-1.636-.5-2.913-.558C23.668 8.014 23.259 8 20 8zm0 2.162c3.204 0 3.584.012 4.85.07 1.169.053 1.805.249 2.228.413.56.218.96.478 1.379.898.42.42.68.82.898 1.38.164.422.36 1.058.413 2.228.058 1.266.07 1.645.07 4.849s-.012 3.584-.07 4.85c-.053 1.169-.249 1.805-.413 2.228-.218.56-.478.96-.898 1.379-.42.42-.82.68-1.38.898-.422.164-1.058.36-2.228.413-1.265.058-1.644.07-4.849.07s-3.584-.012-4.849-.07c-1.17-.053-1.806-.249-2.228-.413a3.71 3.71 0 0 1-1.38-.898c-.42-.42-.68-.82-.898-1.38-.164-.422-.36-1.058-.413-2.228-.058-1.265-.07-1.645-.07-4.849s.012-3.583.07-4.849c.053-1.17.249-1.806.413-2.228.218-.56.478-.96.898-1.38.42-.42.82-.68 1.38-.898.422-.164 1.058-.36 2.228-.413 1.266-.058 1.645-.07 4.849-.07z" fill="#000"/></svg>