<svg width="40" height="40" viewBox="0 0 40 40" fill="none" xmlns="http://www.w3.org/2000/svg"><path fill-rule="evenodd" clip-rule="evenodd" d="M11 8h18a3 3 0 0 1 3 3v18a3 3 0 0 1-3 3H11a3 3 0 0 1-3-3V11a3 3 0 0 1 3-3zm6.216 18.096A8.7 8.7 0 0 0 26 17.342v-.402a6.343 6.343 0 0 0 1.536-1.59 6.206 6.206 0 0 1-1.77.48 3.08 3.08 0 0 0 1.356-1.698 6.279 6.279 0 0 1-1.956.744 3.084 3.084 0 0 0-5.244 2.807 8.733 8.733 0 0 1-6.378-3.215 3.09 3.09 0 0 0 .954 4.11A3.157 3.157 0 0 1 13.1 18.2v.035a3.077 3.077 0 0 0 2.472 3c-.264.074-.536.11-.81.11a3.1 3.1 0 0 1-.6-.055 3.084 3.084 0 0 0 2.874 2.136 6.149 6.149 0 0 1-3.822 1.32c-.246 0-.492 0-.732-.042a8.737 8.737 0 0 0 4.716 1.38" fill="#000"/></svg>