<svg width="40" height="40" viewBox="0 0 40 40" fill="none" xmlns="http://www.w3.org/2000/svg"><path fill-rule="evenodd" clip-rule="evenodd" d="M33.415 13.068a3.51 3.51 0 0 0-2.475-2.482C28.756 10 20 10 20 10s-8.756 0-10.94.586a3.51 3.51 0 0 0-2.475 2.482C6 15.258 6 19.825 6 19.825s0 4.568.585 6.758a3.51 3.51 0 0 0 2.475 2.482c2.184.586 10.94.586 10.94.586s8.756 0 10.94-.586a3.51 3.51 0 0 0 2.475-2.482c.585-2.19.585-6.758.585-6.758s0-4.567-.585-6.757zM17.136 23.973l7.318-4.147-7.318-4.148v8.295z" fill="#000"/></svg>